<?xml version="1.0" encoding="UTF-8"?>
<svg version="1.1" xmlns="http://www.w3.org/2000/svg" width="512" height="512">
<path d="M0 0 C8.08262564 5.04985283 13.85685748 10.94431444 16.20703125 20.37890625 C17.5476139 30.6708794 16.97538443 40.09643144 10.55859375 48.55078125 C4.11244982 56.26363469 -1.97947074 60.71825165 -12.13671875 61.703125 C-21.99862017 62.01398928 -29.39188042 60.40607217 -37.10546875 54.12890625 C-42.27688488 49.25060683 -45.48909052 44.36884297 -46.79296875 37.37890625 C-51.02291184 37.45991564 -55.2514274 37.5727513 -59.48046875 37.69140625 C-61.27774414 37.72524414 -61.27774414 37.72524414 -63.11132812 37.75976562 C-64.84672852 37.81293945 -64.84672852 37.81293945 -66.6171875 37.8671875 C-67.68026123 37.89337158 -68.74333496 37.91955566 -69.83862305 37.9465332 C-73.21180372 38.44020339 -75.12142769 39.27014187 -77.79296875 41.37890625 C-79.06405624 44.82522819 -78.931224 48.2951488 -78.95118713 51.93414307 C-78.95612511 52.59092914 -78.96106309 53.24771522 -78.9661507 53.92440391 C-78.9814973 56.12310271 -78.98987859 58.32177237 -78.99829102 60.52050781 C-79.00787177 62.09743505 -79.01788197 63.67435974 -79.02828979 65.25128174 C-79.0553235 69.53188372 -79.07634138 73.81249672 -79.09629178 78.09313679 C-79.11816078 82.5668113 -79.145545 87.04045194 -79.17234802 91.51409912 C-79.22226253 99.98544675 -79.26720598 108.4568132 -79.31037039 116.92819762 C-79.35975336 126.57262742 -79.41466756 136.21702323 -79.47004998 145.86142015 C-79.58385098 165.70055204 -79.68996393 185.53971517 -79.79296875 205.37890625 C-68.90296875 205.37890625 -58.01296875 205.37890625 -46.79296875 205.37890625 C-46.29796875 202.40890625 -46.29796875 202.40890625 -45.79296875 199.37890625 C-41.48720603 190.97241713 -35.34009299 185.8057731 -26.79296875 182.06640625 C-16.79165352 179.77443818 -7.75762987 179.90760048 1.45703125 184.94140625 C7.91612981 189.16189832 13.38168563 195.44353147 15.76953125 202.890625 C17.65840299 213.63358301 17.032404 224.12657088 10.88671875 233.36328125 C5.71775085 239.97278119 -0.70986757 243.44339574 -8.79296875 245.37890625 C-19.67975423 246.39108306 -28.85675213 245.48550215 -37.60546875 238.62890625 C-43.07181784 233.51147306 -45.56180079 228.76591399 -46.79296875 221.37890625 C-57.68296875 221.37890625 -68.57296875 221.37890625 -79.79296875 221.37890625 C-79.70755586 242.15402832 -79.61398268 262.92906095 -79.50544167 283.70407391 C-79.45530764 293.35014445 -79.40886478 302.99620646 -79.37109375 312.64233398 C-79.33816539 321.04933262 -79.29832946 329.4562652 -79.25017869 337.86319095 C-79.22492213 342.31509385 -79.20313832 346.76695298 -79.18962479 351.21890831 C-79.17679683 355.40906214 -79.15473443 359.59906578 -79.12558556 363.78913689 C-79.11651554 365.3270124 -79.11082089 366.86491209 -79.10875511 368.40281296 C-79.10542847 370.50318409 -79.08994065 372.60313047 -79.07144165 374.70341492 C-79.06591089 375.87870097 -79.06038013 377.05398703 -79.05468178 378.26488781 C-78.79178423 381.39300035 -78.20205615 383.58672098 -76.79296875 386.37890625 C-73.64525789 388.69961641 -70.54135843 388.6804242 -66.71484375 388.79296875 C-65.5546875 388.83164062 -64.39453125 388.8703125 -63.19921875 388.91015625 C-61.99265625 388.94109375 -60.78609375 388.97203125 -59.54296875 389.00390625 C-58.3209375 389.04257812 -57.09890625 389.08125 -55.83984375 389.12109375 C-52.82436935 389.21532733 -49.80890047 389.3009408 -46.79296875 389.37890625 C-46.6640625 388.62609375 -46.53515625 387.87328125 -46.40234375 387.09765625 C-45.01461224 380.90623873 -41.40851392 376.54415433 -36.79296875 372.37890625 C-36.07109375 371.67765625 -35.34921875 370.97640625 -34.60546875 370.25390625 C-27.19446391 365.31323635 -18.50770196 364.37552817 -9.79296875 365.37890625 C-0.84432839 367.49360497 6.95963055 371.57617961 12.08203125 379.37890625 C16.99724268 387.62821214 17.4521666 397.04039114 16.20703125 406.37890625 C13.42947247 415.61020454 8.16888148 421.7276817 0.0703125 426.6875 C-8.47967057 430.88265298 -19.28788977 431.05489696 -28.30859375 428.30859375 C-35.33612886 425.07734017 -41.84593346 420.5893298 -44.64013672 413.11181641 C-45.38976836 410.87604988 -46.10799463 408.63523823 -46.79296875 406.37890625 C-47.59404053 406.3946167 -48.3951123 406.41032715 -49.22045898 406.42651367 C-52.89038889 406.48931773 -56.56020524 406.52804113 -60.23046875 406.56640625 C-62.12055664 406.60411133 -62.12055664 406.60411133 -64.04882812 406.64257812 C-73.75490241 406.71860482 -82.13313664 405.8201287 -89.79296875 399.37890625 C-94.15064586 393.54505126 -95.91872832 389.0164101 -95.91322327 381.67817688 C-95.91407769 380.99366036 -95.91493212 380.30914384 -95.91581243 379.6038844 C-95.91746234 377.30531381 -95.91195385 375.00681585 -95.90649414 372.70825195 C-95.90621214 371.06251019 -95.90637026 369.4167683 -95.90693665 367.77102661 C-95.90722411 363.29819544 -95.90133561 358.82539096 -95.89436269 354.352566 C-95.88812067 349.68004761 -95.88752468 345.00752863 -95.88633728 340.33500671 C-95.88322648 331.48465048 -95.87501645 322.63430656 -95.86498779 313.78395575 C-95.85381889 303.70910978 -95.84831424 293.63426322 -95.84329236 283.5594126 C-95.83283364 262.83257027 -95.81523903 242.10573903 -95.79296875 221.37890625 C-97.10491211 221.39985352 -98.41685547 221.42080078 -99.76855469 221.44238281 C-104.63628219 221.51478595 -109.5039621 221.56070738 -114.37207031 221.59863281 C-116.47892257 221.61874751 -118.585719 221.64604292 -120.69238281 221.68066406 C-123.72084322 221.72918793 -126.74856553 221.75187641 -129.77734375 221.76953125 C-131.19004547 221.80049896 -131.19004547 221.80049896 -132.63128662 221.83209229 C-139.1712895 221.83433606 -139.1712895 221.83433606 -142.38574219 219.47949219 C-143.90250015 217.21540726 -144.33516382 216.07939062 -144.29296875 213.37890625 C-144.3084375 212.38890625 -144.3084375 212.38890625 -144.32421875 211.37890625 C-143.50032141 208.27717507 -142.40156988 207.28991537 -139.79296875 205.37890625 C-136.45368574 204.81294282 -133.15563118 204.9142261 -129.77734375 204.98828125 C-128.80637756 204.99394104 -127.83541138 204.99960083 -126.83502197 205.00543213 C-123.73716706 205.02780314 -120.64047342 205.07800152 -117.54296875 205.12890625 C-115.44142297 205.14897028 -113.33985903 205.16722122 -111.23828125 205.18359375 C-106.08939705 205.22767045 -100.94137972 205.29670367 -95.79296875 205.37890625 C-95.79665592 204.5256073 -95.80034309 203.67230835 -95.804142 202.79315186 C-95.89252484 182.01917829 -95.95869388 161.24523719 -96.00021744 140.47111511 C-96.02083227 130.42484785 -96.04893229 120.37870618 -96.09472656 110.33251953 C-96.1346273 101.5750514 -96.16040941 92.81767423 -96.16932273 84.06011772 C-96.17453199 79.42411918 -96.18675319 74.78838087 -96.21588898 70.15246582 C-96.24310924 65.78581687 -96.25140043 61.4195345 -96.24539948 57.05280876 C-96.24649676 55.45326684 -96.25441133 53.85371221 -96.26979065 52.25424385 C-96.35989743 42.39660673 -96.0533972 35.44536171 -89.48046875 27.62890625 C-82.76692839 22.00826781 -76.89027331 20.24147564 -68.1796875 20.28125 C-66.93251953 20.28447266 -65.68535156 20.28769531 -64.40039062 20.29101562 C-63.10681641 20.29939453 -61.81324219 20.30777344 -60.48046875 20.31640625 C-58.51110352 20.32317383 -58.51110352 20.32317383 -56.50195312 20.33007812 C-53.26557865 20.34184676 -50.02929697 20.35828865 -46.79296875 20.37890625 C-46.61701172 19.78432617 -46.44105469 19.18974609 -46.25976562 18.57714844 C-43.52517782 9.79862178 -39.09869531 3.77050888 -30.85546875 -0.68359375 C-21.52994983 -4.42419187 -9.09120708 -4.4449343 0 0 Z " fill="#000000" transform="translate(463.79296875,42.62109375)"/>
<path d="M0 0 C0.14014979 18.5584271 0.2459609 37.11674685 0.31087303 55.67559338 C0.3418138 64.29277929 0.38399814 72.90963644 0.45263672 81.52661133 C0.51243247 89.03702475 0.55114756 96.54720009 0.56453097 104.05784494 C0.57235464 108.03497401 0.59074515 112.01142196 0.63438034 115.98833275 C0.67512508 119.7321604 0.6876659 123.47502686 0.67864609 127.21905518 C0.68108233 129.2471391 0.71336151 131.27511845 0.746521 133.30293274 C0.68730688 141.99048978 0.68730688 141.99048978 -1.28819275 144.89208603 C-2.87661743 146.24925232 -2.87661743 146.24925232 -6 148 C-6.87624023 148.56315918 -7.75248047 149.12631836 -8.65527344 149.70654297 C-9.54762695 150.21330566 -10.43998047 150.72006836 -11.359375 151.2421875 C-12.37902344 151.82548828 -13.39867187 152.40878906 -14.44921875 153.00976562 C-15.53847656 153.62529297 -16.62773437 154.24082031 -17.75 154.875 C-19.50006899 155.87405513 -21.25013295 156.87311921 -22.99987793 157.8727417 C-24.80816424 158.90488121 -26.61784619 159.93453968 -28.42773438 160.96386719 C-33.96656236 164.11697485 -39.48196345 167.31069925 -45 170.5 C-47.16655811 171.75018814 -49.33322511 173.0001876 -51.5 174.25 C-53.10875 175.178125 -53.10875 175.178125 -54.75 176.125 C-64.5 181.75 -64.5 181.75 -67.75341797 183.62695312 C-69.90871311 184.8704051 -72.06398673 186.11389436 -74.21923828 187.35742188 C-79.22337674 190.24462875 -84.2277052 193.1315043 -89.23284912 196.01696777 C-90.98341241 197.02619104 -92.73390411 198.03553836 -94.484375 199.04492188 C-96.66392165 200.3016766 -98.84359832 201.55820586 -101.0234375 202.81445312 C-102.02375 203.39130859 -103.0240625 203.96816406 -104.0546875 204.5625 C-105.02631836 205.12195313 -105.99794922 205.68140625 -106.99902344 206.2578125 C-109.12353665 207.4911778 -111.24069131 208.73725904 -113.35253906 209.9921875 C-114.4350293 210.63414062 -115.51751953 211.27609375 -116.6328125 211.9375 C-117.6139502 212.52402344 -118.59508789 213.11054688 -119.60595703 213.71484375 C-122 215 -122 215 -124 215 C-124.21028941 196.32858859 -124.36897179 177.65741761 -124.46630955 158.98506737 C-124.51270785 150.31500019 -124.5759568 141.64566898 -124.67895508 132.97607422 C-124.76869171 125.41913666 -124.82673078 117.86273206 -124.84679645 110.30527651 C-124.85852575 106.30371089 -124.88606249 102.30366985 -124.95157051 98.30259323 C-125.01276055 94.5346471 -125.03148714 90.76884975 -125.01796913 87.00045395 C-125.02044103 85.61928109 -125.03829319 84.2380349 -125.07284927 82.85729218 C-125.32104627 72.42672406 -125.32104627 72.42672406 -122.03089809 68.87337875 C-119.7423648 67.32339194 -117.5185416 66.12809008 -115 65 C-114.03118896 64.42443359 -113.06237793 63.84886719 -112.06420898 63.25585938 C-111.21673096 62.78986328 -110.36925293 62.32386719 -109.49609375 61.84375 C-108.52099854 61.30371338 -107.54590332 60.76367676 -106.54125977 60.20727539 C-105.51701904 59.64387451 -104.49277832 59.08047363 -103.4375 58.5 C-93.92170041 53.21875583 -84.48244497 47.82546092 -75.09350586 42.32226562 C-67.74702081 38.01651055 -60.3796696 33.74861805 -53 29.5 C-44.40087327 24.54760314 -35.81792693 19.56867715 -27.25 14.5625 C-24.3638837 12.87826809 -21.47748488 11.19452249 -18.59082031 9.51123047 C-16.93865619 8.54751996 -15.28691817 7.58307834 -13.63574219 6.61767578 C-11.63464783 5.44909778 -9.63050634 4.28598431 -7.625 3.125 C-6.56539063 2.50882813 -5.50578125 1.89265625 -4.4140625 1.2578125 C-2 0 -2 0 0 0 Z " fill="#000000" transform="translate(296,189)"/>
<path d="M0 0 C3.93195472 1.2717644 7.36655837 2.61732968 10.921875 4.73046875 C11.85112793 5.27823975 12.78038086 5.82601074 13.73779297 6.39038086 C15.22883545 7.27995483 15.22883545 7.27995483 16.75 8.1875 C18.91367549 9.46419778 21.07775166 10.74021671 23.2421875 12.015625 C24.35819336 12.67498047 25.47419922 13.33433594 26.62402344 14.01367188 C32.0212633 17.18925356 37.44764 20.3137656 42.875 23.4375 C45.05991376 24.69658348 47.24480949 25.95569823 49.4296875 27.21484375 C50.51475586 27.83987793 51.59982422 28.46491211 52.71777344 29.10888672 C59.22217941 32.85651605 65.72375795 36.60904961 72.2253418 40.36157227 C77.77686292 43.56532462 83.33020797 46.76584577 88.88671875 49.9609375 C108.4218588 61.1997995 108.4218588 61.1997995 117.0625 66.375 C117.66989014 66.73835449 118.27728027 67.10170898 118.90307617 67.47607422 C122.8696895 69.8696895 122.8696895 69.8696895 124 71 C124.09650437 72.86028034 124.12187292 74.72427029 124.12025452 76.58705139 C124.12231651 78.40657066 124.12231651 78.40657066 124.12442017 80.2628479 C124.12088056 81.61932397 124.11724575 82.9757998 124.11352539 84.33227539 C124.11324352 85.75112404 124.11340124 87.16997284 124.1139679 88.58882141 C124.11425589 92.45228801 124.1083589 96.31572383 124.10139394 100.17918324 C124.09516067 104.21242573 124.09455662 108.24566885 124.09336853 112.27891541 C124.09025514 119.92165468 124.08204164 127.56437973 124.07201904 135.20711273 C124.06085816 143.90588019 124.05534752 152.60464831 124.05032361 161.30342114 C124.03985903 179.20228884 124.02225943 197.10114328 124 215 C120.46935789 213.61572638 117.19644021 212.09020174 113.88671875 210.234375 C112.89889404 209.68152832 111.91106934 209.12868164 110.89331055 208.55908203 C109.83539307 207.96208496 108.77747559 207.36508789 107.6875 206.75 C106.57737549 206.12593262 105.46725098 205.50186523 104.32348633 204.85888672 C95.91412229 200.11630308 87.56308564 195.27753894 79.23510742 190.39355469 C71.52145112 185.87329067 63.76820652 181.42548104 56 177 C43.28331812 169.75176212 30.61866667 162.41772973 18 155 C17.195625 154.52884766 16.39125 154.05769531 15.5625 153.57226562 C13.43438932 152.32418702 11.31013592 151.06986094 9.1875 149.8125 C8.58897217 149.46195557 7.99044434 149.11141113 7.3737793 148.75024414 C1.93187176 145.50256288 1.93187176 145.50256288 0 143 C-0.36914349 140.39757252 -0.36914349 140.39757252 -0.36076355 137.21040344 C-0.36488754 136.00305542 -0.36901154 134.7957074 -0.3732605 133.55177307 C-0.36264313 132.21200339 -0.35173871 130.87223596 -0.34057617 129.5324707 C-0.33973005 128.1231793 -0.34020475 126.71388658 -0.34190369 125.30459595 C-0.34276566 121.4762678 -0.32510739 117.64822071 -0.30418181 113.81995797 C-0.28544861 109.82010584 -0.28366723 105.82024751 -0.28010559 101.82035828 C-0.27077523 94.24492053 -0.2461481 86.66961241 -0.21605712 79.09423178 C-0.18254389 70.47040262 -0.16603486 61.84656732 -0.15097082 53.22268927 C-0.11959937 35.48171931 -0.06681967 17.74087007 0 0 Z " fill="#000000" transform="translate(32,189)"/>
<path d="M0 0 C2.83886719 1.23071289 2.83886719 1.23071289 5.796875 2.97265625 C7.46194092 3.93957397 7.46194092 3.93957397 9.16064453 4.92602539 C10.35719833 5.63801224 11.5536474 6.35017512 12.75 7.0625 C14.0016936 7.79481807 15.25414799 8.5258372 16.50732422 9.25561523 C19.08573596 10.75924691 21.66011106 12.2694546 24.23144531 13.78515625 C28.78116666 16.4641623 33.35724932 19.09676258 37.93457031 21.72827148 C41.14897483 23.57628351 44.36009906 25.42987461 47.5703125 27.28515625 C52.96166174 30.40046766 58.35456289 33.51307687 63.74829102 36.62426758 C65.90777408 37.86995482 68.06711765 39.11588394 70.22631836 40.36206055 C75.77746892 43.56572841 81.33052286 46.76602683 86.88671875 49.9609375 C98.32032959 56.53921282 109.73299389 63.13939727 121 70 C119.78416075 73.64751775 118.99712003 73.85255743 115.71484375 75.64453125 C114.8026709 76.15000488 113.89049805 76.65547852 112.95068359 77.17626953 C111.95633301 77.71622559 110.96198242 78.25618164 109.9375 78.8125 C107.84416043 79.97104661 105.75174287 81.13126042 103.66015625 82.29296875 C102.56977051 82.8967334 101.47938477 83.50049805 100.35595703 84.12255859 C94.82090217 87.21906462 89.34762308 90.41981721 83.875 93.625 C82.86300537 94.21643799 81.85101074 94.80787598 80.80834961 95.41723633 C75.56922711 98.44319051 75.56922711 98.44319051 70.50439453 101.74365234 C68 103 68 103 65.48901367 102.85205078 C62.81721374 101.93742776 60.60097617 100.81495756 58.17578125 99.3671875 C57.24330566 98.81619385 56.31083008 98.2652002 55.35009766 97.69750977 C53.84648682 96.79536743 53.84648682 96.79536743 52.3125 95.875 C50.13974019 94.58913841 47.96654843 93.30400648 45.79296875 92.01953125 C44.67067871 91.3538916 43.54838867 90.68825195 42.39208984 90.00244141 C36.99305852 86.81524874 31.5594716 83.68875325 26.125 80.5625 C23.94005632 79.30346844 21.75516075 78.04435339 19.5703125 76.78515625 C17.94270996 75.84760498 17.94270996 75.84760498 16.28222656 74.89111328 C10.85340059 71.76319852 5.42680025 68.63142753 0 65.5 C-7.70346092 61.05540486 -15.40715052 56.61120727 -23.11181641 52.16870117 C-25.30348279 50.90425351 -27.49457777 49.63881483 -29.68505859 48.37231445 C-34.73062604 45.45574547 -39.782176 42.55170674 -44.85546875 39.68359375 C-45.75015869 39.17473633 -46.64484863 38.66587891 -47.56665039 38.14160156 C-49.23033014 37.19600784 -50.89733008 36.25622384 -52.56811523 35.32324219 C-54.41186707 34.2715492 -56.21198957 33.14389583 -58 32 C-58 31.34 -58 30.68 -58 30 C-56.40885417 29.08203125 -54.81770833 28.1640625 -53.2265625 27.24609375 C-52.1859668 26.64547119 -51.14537109 26.04484863 -50.07324219 25.42602539 C-47.75453415 24.08887749 -45.43505443 22.75318543 -43.11425781 21.41967773 C-37.5552726 18.22286474 -32.00478893 15.01494646 -26.49459839 11.73454285 C-24.72059355 10.67910339 -22.94356742 9.62894693 -21.16552734 8.58032227 C-18.92268292 7.25529659 -16.68578713 5.92013941 -14.45556641 4.57397461 C-13.43382324 3.97335205 -12.41208008 3.37272949 -11.359375 2.75390625 C-10.46702148 2.22095947 -9.57466797 1.6880127 -8.65527344 1.13891602 C-5.45825272 -0.23236953 -3.45218052 -0.40813683 0 0 Z " fill="#000000" transform="translate(167,104)"/>
<path d="M0 0 C1.95870085 0.96625542 3.87973692 2.01055509 5.76953125 3.10546875 C7.4548999 4.07528687 7.4548999 4.07528687 9.17431641 5.06469727 C10.38714046 5.77213329 11.59986584 6.47973851 12.8125 7.1875 C14.07437253 7.91716408 15.33658429 8.64624177 16.59912109 9.37475586 C20.40487868 11.5738255 24.20285646 13.78610095 28 16 C29.06943848 16.62229492 30.13887695 17.24458984 31.24072266 17.88574219 C36.16910584 20.7539452 41.09359276 23.62872677 46.015625 26.5078125 C52.28897798 30.17381607 58.58007619 33.80868924 64.875 37.4375 C65.94886963 38.05657227 67.02273926 38.67564453 68.12915039 39.31347656 C72.55350496 41.86322796 76.97852587 44.41182081 81.40380859 46.95996094 C87.96003458 50.73552348 94.51305273 54.51653349 101.06201172 58.3046875 C103.84074516 59.9081049 106.62482273 61.50183473 109.41015625 63.09375 C110.98196034 63.99967129 112.5535889 64.90589721 114.125 65.8125 C115.1914978 66.4163855 115.1914978 66.4163855 116.27954102 67.0324707 C117.88694033 67.96552841 119.44992203 68.97453059 121 70 C121 70.66 121 71.32 121 72 C120.33170166 72.3717334 119.66340332 72.7434668 118.97485352 73.12646484 C102.6922938 82.1792458 102.6922938 82.1792458 86.5625 91.5 C85.54506714 92.09784302 85.54506714 92.09784302 84.50708008 92.70776367 C81.60944273 94.41929712 78.74985651 96.16073859 75.91796875 97.98046875 C74.59732422 98.82544922 74.59732422 98.82544922 73.25 99.6875 C72.53328125 100.16574219 71.8165625 100.64398438 71.078125 101.13671875 C68.19941263 102.33257483 66.9629729 101.98624062 64 101 C61.32093718 99.7313963 58.75903685 98.28501371 56.1875 96.8125 C55.40761719 96.37252686 54.62773437 95.93255371 53.82421875 95.47924805 C45.28018076 90.63734839 36.80987947 85.66627229 28.3359375 80.703125 C21.94718008 76.96365411 15.53883924 73.25874966 9.125 69.5625 C8.04541016 68.94028564 6.96582031 68.31807129 5.85351562 67.67700195 C3.6631748 66.41488483 1.47274498 65.15292215 -0.71777344 63.89111328 C-6.14659942 60.76319852 -11.57319329 57.63141635 -17 54.5 C-19.13280164 53.26951242 -21.26561418 52.03904375 -23.3984375 50.80859375 C-34.265625 44.5390625 -45.1328125 38.26953125 -56 32 C-56 30.68 -56 29.36 -56 28 C-54.9790625 27.44054687 -53.958125 26.88109375 -52.90625 26.3046875 C-42.65158444 20.65880651 -32.50783302 14.84040717 -22.4140625 8.91162109 C-20.50656706 7.79221237 -18.5963493 6.67742631 -16.68310547 5.56787109 C-14.93073518 4.54387455 -13.18943473 3.50062693 -11.46142578 2.43603516 C-10.68138184 1.96858887 -9.90133789 1.50114258 -9.09765625 1.01953125 C-8.42355713 0.60421143 -7.74945801 0.1888916 -7.05493164 -0.23901367 C-4.26475455 -1.27227754 -2.82683321 -0.89034117 0 0 Z " fill="#000000" transform="translate(97,145)"/>
</svg>
